<svg xmlns="http://www.w3.org/2000/svg" width="160.026" height="34.604"><defs><linearGradient id="2b0apblxcb" x1=".284" y1=".723" x2=".72" y2=".272" gradientUnits="objectBoundingBox"><stop offset=".025" stop-color="#4c4eac"/><stop offset=".074" stop-color="#544db0"/><stop offset=".148" stop-color="#684abc"/><stop offset=".22" stop-color="#8346ca"/><stop offset=".254" stop-color="#9041cd"/><stop offset=".315" stop-color="#b233d6"/><stop offset=".34" stop-color="#c22dda"/><stop offset=".413" stop-color="#e813a9"/><stop offset=".456" stop-color="#f4248f"/><stop offset=".488" stop-color="#ff3378"/><stop offset=".547" stop-color="#ff685b"/><stop offset=".6" stop-color="#ff7856"/><stop offset=".656" stop-color="#fe8750"/><stop offset=".888" stop-color="#fcc13a"/><stop offset="1" stop-color="#fbd831"/></linearGradient><clipPath id="qpcct6aixa"><path data-name="Path 32578" d="M280.539 271.7c0 4.872-3.159 6.023-5.639 6.023s-5.639-1.181-5.639-6.023c0-4.872 3.159-6.023 5.639-6.023s5.639 1.151 5.639 6.023m4.488 0v-23.62a.608.608 0 00-.679-.679h-3.1a.608.608 0 00-.679.679v15.707c-1.27-1.653-3.986-2.392-5.639-2.392-5.7 0-10.1 3.543-10.1 10.3 0 6.259 4.429 10.3 10.1 10.3s10.1-3.543 10.1-10.3m-34.81-6.023a5.1 5.1 0 00-5.285 3.6H255.5a5.12 5.12 0 00-5.285-3.6m9.389 6.85h-15.027c.384 4.193 3.307 5.2 5.639 5.2a5.41 5.41 0 003.927-1.417 1.13 1.13 0 011.122-.207l2.864 1.27a.566.566 0 01.236.886c-1.8 2.48-4.665 3.75-8.178 3.75-5.7 0-10.1-3.543-10.1-10.3s4.429-10.3 10.1-10.3c5.7 0 10.1 3.543 10.1 10.3v.148a.651.651 0 01-.679.679m-28.433-.827c0 4.724-3.159 6.023-5.639 6.023s-5.639-1.181-5.639-6.023c0-4.872 3.159-6.023 5.639-6.023s5.639 1.151 5.639 6.023m4.488 0c0-6.761-4.429-10.3-10.1-10.3-1.653 0-4.37.738-5.639 2.392v-15.717a.608.608 0 00-.679-.679h-3.1a.608.608 0 00-.679.679V271.7c0 6.761 4.429 10.3 10.1 10.3a9.96 9.96 0 0010.1-10.3m-25.274-6.171c-.089.472-.207.65-.768.531a11.132 11.132 0 00-2.392-.236c-2.126 0-4.074.768-4.074 3.9v11.042a.608.608 0 01-.679.679h-3.1a.608.608 0 01-.679-.679v-11.045c0-6.023 3.6-8.208 8.06-8.208a13.882 13.882 0 013.6.472.646.646 0 01.531.886l-.5 2.657zm-21.081 3.75h-10.6a5.7 5.7 0 0110.6 0m4.813 2.569v-.148c0-6.761-4.429-10.3-10.1-10.3-5.7 0-10.1 3.543-10.1 10.3s4.429 10.3 10.1 10.3c3.514 0 6.377-1.27 8.178-3.75a.582.582 0 00-.236-.886L189.1 276.1a1.01 1.01 0 00-1.122.207 5.41 5.41 0 01-3.927 1.417c-2.332 0-5.255-1.033-5.639-5.2h15.028a.707.707 0 00.679-.679m-30.293 8.946a.865.865 0 01-.915.62H159.4a1.024 1.024 0 01-.974-.62l-7.736-18.187a.43.43 0 01.443-.62h3.514a.9.9 0 01.915.62l5.58 13.4 5.58-13.4a.865.865 0 01.915-.62h3.514a.409.409 0 01.384.62l-7.706 18.188zM146.2 262.664a.608.608 0 00-.679-.679h-3.1a.608.608 0 00-.679.679v18.069a.608.608 0 00.679.679h3.1a.608.608 0 00.679-.679v-18.069zm-2.244-11.131a2.716 2.716 0 11-2.716 2.716 2.709 2.709 0 012.716-2.716m-6.761 11.308a.67.67 0 00-.531-.886 11.746 11.746 0 00-3.6-.472c-4.458 0-8.06 2.185-8.06 8.208v11.042a.608.608 0 00.679.679h3.1a.608.608 0 00.679-.679v-11.012c0-3.1 1.949-3.9 4.074-3.9a11.317 11.317 0 012.392.236c.561.118.709-.089.768-.531l.5-2.687z" transform="translate(-125 -247.4)"/></clipPath></defs><g data-name="Group 27212" clip-path="url(#qpcct6aixa)"><path data-name="Path 32577" d="M244.689-134.374L101.226 9.089-86.2-178.337 57.263-321.8z" transform="translate(23.843 153.743)" fill="url(#2b0apblxcb)"/></g></svg>