<svg xmlns="http://www.w3.org/2000/svg" width="933.645" height="828.741"><defs><linearGradient id="pj3sa8bw7a" x1="-.119" y1=".518" x2=".962" y2=".5" gradientUnits="objectBoundingBox"><stop offset=".025" stop-color="#4e4fa9"/><stop offset=".047" stop-color="#534ead"/><stop offset=".215" stop-color="#7648c6"/><stop offset=".38" stop-color="#a831d6"/><stop offset=".54" stop-color="#c81aa5"/><stop offset=".623" stop-color="#e10098"/><stop offset=".663" stop-color="#e71989"/><stop offset=".771" stop-color="#f85a61"/><stop offset=".822" stop-color="#fe7351"/><stop offset=".862" stop-color="#fd7851"/><stop offset=".91" stop-color="#fc8750"/><stop offset=".962" stop-color="#f99f4e"/><stop offset="1" stop-color="#f7b54c"/></linearGradient></defs><g data-name="Group 27863"><g data-name="Rectangle 5241" stroke="#c6c6c6" stroke-width="1.5" fill="none"><path d="M278.451 505.876l377.834-390.85a40 40 0 0156.56-.957l220.866 213.51-377.834 390.85a40 40 0 01-56.56.957L278.45 505.876z" stroke="none"/><path d="M279.512 505.858l377.313-390.31a39.25 39.25 0 0155.5-.94l220.325 212.99-377.312 390.31a39.25 39.25 0 01-55.5.94l-220.326-212.99z" fill="none"/></g><path d="M0 0h816.619a40 40 0 0140 40v265.964H40a40 40 0 01-40-40V0z" transform="rotate(-45.97 741.975 271.213)" fill="url(#pj3sa8bw7a)"/><g data-name="Rectangle 5238" stroke="#c6c6c6" stroke-width="1.5" fill="none"><path d="M-.012 401.666l351.26-363.36a40 40 0 0156.561-.958l211.728 204.677-351.261 363.36a40 40 0 01-56.56.958L-.012 401.666z" stroke="none"/><path d="M1.048 401.648l350.74-362.822a39.25 39.25 0 0155.5-.94l211.188 204.157-350.74 362.821a39.25 39.25 0 01-55.5.94L1.049 401.648z" fill="none"/></g></g></svg>